<svg xmlns="http://www.w3.org/2000/svg" version="1.1" xmlns:xlink="http://www.w3.org/1999/xlink" xmlns:svgjs="http://svgjs.dev/svgjs" width="1440" height="560" preserveAspectRatio="none" viewBox="0 0 1440 560"><g mask="url(&quot;#SvgjsMask1529&quot;)" fill="none"><rect width="1440" height="560" x="0" y="0" fill="url(&quot;#SvgjsLinearGradient1530&quot;)"></rect><path d="M-85.93 520.61L-85.93 520.61" stroke="rgba(202, 6, 6, 1)" stroke-width="1.5"></path><path d="M-85.93 520.61L99.76 548.16" stroke="rgba(202, 6, 6, 1)" stroke-width="1.5"></path><path d="M-85.93 520.61L-64.54 710.68" stroke="rgba(202, 6, 6, 1)" stroke-width="1.5"></path><path d="M-64.54 710.68L-64.54 710.68" stroke="rgba(202, 6, 6, 1)" stroke-width="1.5"></path><path d="M-64.54 710.68L73.87 706.49" stroke="rgba(202, 6, 6, 1)" stroke-width="1.5"></path><path d="M-64.54 710.68L99.76 548.16" stroke="rgba(202, 6, 6, 1)" stroke-width="1.5"></path><path d="M-64.54 710.68L230.13 655.21" stroke="rgba(202, 6, 6, 1)" stroke-width="1.5"></path><path d="M-64.54 710.68L239.59 487.5" stroke="rgba(202, 6, 6, 1)" stroke-width="1.5"></path><path d="M111.93 341L111.93 341" stroke="rgba(202, 6, 6, 1)" stroke-width="1.5"></path><path d="M111.93 341L220.09 358.41" stroke="rgba(202, 6, 6, 1)" stroke-width="1.5"></path><path d="M111.93 341L239.59 487.5" stroke="rgba(202, 6, 6, 1)" stroke-width="1.5"></path><path d="M111.93 341L99.76 548.16" stroke="rgba(202, 6, 6, 1)" stroke-width="1.5"></path><path d="M111.93 341L374.99 339.14" stroke="rgba(202, 6, 6, 1)" stroke-width="1.5"></path><path d="M99.76 548.16L99.76 548.16" stroke="rgba(202, 6, 6, 1)" stroke-width="1.5"></path><path d="M99.76 548.16L239.59 487.5" stroke="rgba(202, 6, 6, 1)" stroke-width="1.5"></path><path d="M99.76 548.16L73.87 706.49" stroke="rgba(202, 6, 6, 1)" stroke-width="1.5"></path><path d="M99.76 548.16L230.13 655.21" stroke="rgba(202, 6, 6, 1)" stroke-width="1.5"></path><path d="M73.87 706.49L73.87 706.49" stroke="rgba(202, 6, 6, 1)" stroke-width="1.5"></path><path d="M73.87 706.49L230.13 655.21" stroke="rgba(202, 6, 6, 1)" stroke-width="1.5"></path><path d="M220.09 358.41L220.09 358.41" stroke="rgba(202, 6, 6, 1)" stroke-width="1.5"></path><path d="M220.09 358.41L239.59 487.5" stroke="rgba(202, 6, 6, 1)" stroke-width="1.5"></path><path d="M239.59 487.5L239.59 487.5" stroke="rgba(202, 6, 6, 1)" stroke-width="1.5"></path><path d="M239.59 487.5L353.36 553.06" stroke="rgba(202, 6, 6, 1)" stroke-width="1.5"></path><path d="M230.13 655.21L230.13 655.21" stroke="rgba(202, 6, 6, 1)" stroke-width="1.5"></path><path d="M230.13 655.21L345.43 682.32" stroke="rgba(202, 6, 6, 1)" stroke-width="1.5"></path><path d="M230.13 655.21L353.36 553.06" stroke="rgba(202, 6, 6, 1)" stroke-width="1.5"></path><path d="M230.13 655.21L239.59 487.5" stroke="rgba(202, 6, 6, 1)" stroke-width="1.5"></path><path d="M374.99 339.14L374.99 339.14" stroke="rgba(202, 6, 6, 1)" stroke-width="1.5"></path><path d="M374.99 339.14L220.09 358.41" stroke="rgba(202, 6, 6, 1)" stroke-width="1.5"></path><path d="M374.99 339.14L549.87 395.64" stroke="rgba(202, 6, 6, 1)" stroke-width="1.5"></path><path d="M374.99 339.14L239.59 487.5" stroke="rgba(202, 6, 6, 1)" stroke-width="1.5"></path><path d="M374.99 339.14L353.36 553.06" stroke="rgba(202, 6, 6, 1)" stroke-width="1.5"></path><path d="M353.36 553.06L353.36 553.06" stroke="rgba(202, 6, 6, 1)" stroke-width="1.5"></path><path d="M353.36 553.06L345.43 682.32" stroke="rgba(202, 6, 6, 1)" stroke-width="1.5"></path><path d="M345.43 682.32L345.43 682.32" stroke="rgba(202, 6, 6, 1)" stroke-width="1.5"></path><path d="M345.43 682.32L520.82 667.93" stroke="rgba(202, 6, 6, 1)" stroke-width="1.5"></path><path d="M345.43 682.32L239.59 487.5" stroke="rgba(202, 6, 6, 1)" stroke-width="1.5"></path><path d="M345.43 682.32L546.82 499.21" stroke="rgba(202, 6, 6, 1)" stroke-width="1.5"></path><path d="M345.43 682.32L73.87 706.49" stroke="rgba(202, 6, 6, 1)" stroke-width="1.5"></path><path d="M549.87 395.64L549.87 395.64" stroke="rgba(202, 6, 6, 1)" stroke-width="1.5"></path><path d="M549.87 395.64L546.82 499.21" stroke="rgba(202, 6, 6, 1)" stroke-width="1.5"></path><path d="M549.87 395.64L696.59 339.5" stroke="rgba(202, 6, 6, 1)" stroke-width="1.5"></path><path d="M549.87 395.64L639.92 537.6" stroke="rgba(202, 6, 6, 1)" stroke-width="1.5"></path><path d="M546.82 499.21L546.82 499.21" stroke="rgba(202, 6, 6, 1)" stroke-width="1.5"></path><path d="M546.82 499.21L639.92 537.6" stroke="rgba(202, 6, 6, 1)" stroke-width="1.5"></path><path d="M546.82 499.21L520.82 667.93" stroke="rgba(202, 6, 6, 1)" stroke-width="1.5"></path><path d="M520.82 667.93L520.82 667.93" stroke="rgba(202, 6, 6, 1)" stroke-width="1.5"></path><path d="M520.82 667.93L644.06 645.93" stroke="rgba(202, 6, 6, 1)" stroke-width="1.5"></path><path d="M659.48 250.07L659.48 250.07" stroke="rgba(202, 6, 6, 1)" stroke-width="1.5"></path><path d="M659.48 250.07L696.59 339.5" stroke="rgba(202, 6, 6, 1)" stroke-width="1.5"></path><path d="M659.48 250.07L790.68 243.65" stroke="rgba(202, 6, 6, 1)" stroke-width="1.5"></path><path d="M659.48 250.07L549.87 395.64" stroke="rgba(202, 6, 6, 1)" stroke-width="1.5"></path><path d="M659.48 250.07L860.76 401.48" stroke="rgba(202, 6, 6, 1)" stroke-width="1.5"></path><path d="M696.59 339.5L696.59 339.5" stroke="rgba(202, 6, 6, 1)" stroke-width="1.5"></path><path d="M696.59 339.5L790.68 243.65" stroke="rgba(202, 6, 6, 1)" stroke-width="1.5"></path><path d="M696.59 339.5L860.76 401.48" stroke="rgba(202, 6, 6, 1)" stroke-width="1.5"></path><path d="M696.59 339.5L639.92 537.6" stroke="rgba(202, 6, 6, 1)" stroke-width="1.5"></path><path d="M639.92 537.6L639.92 537.6" stroke="rgba(202, 6, 6, 1)" stroke-width="1.5"></path><path d="M639.92 537.6L644.06 645.93" stroke="rgba(202, 6, 6, 1)" stroke-width="1.5"></path><path d="M639.92 537.6L807.8 514.81" stroke="rgba(202, 6, 6, 1)" stroke-width="1.5"></path><path d="M644.06 645.93L644.06 645.93" stroke="rgba(202, 6, 6, 1)" stroke-width="1.5"></path><path d="M644.06 645.93L546.82 499.21" stroke="rgba(202, 6, 6, 1)" stroke-width="1.5"></path><path d="M644.06 645.93L835.68 660.02" stroke="rgba(202, 6, 6, 1)" stroke-width="1.5"></path><path d="M790.68 243.65L790.68 243.65" stroke="rgba(202, 6, 6, 1)" stroke-width="1.5"></path><path d="M790.68 243.65L860.76 401.48" stroke="rgba(202, 6, 6, 1)" stroke-width="1.5"></path><path d="M790.68 243.65L997.56 219.07" stroke="rgba(202, 6, 6, 1)" stroke-width="1.5"></path><path d="M790.68 243.65L974.66 68.81" stroke="rgba(202, 6, 6, 1)" stroke-width="1.5"></path><path d="M790.68 243.65L807.8 514.81" stroke="rgba(202, 6, 6, 1)" stroke-width="1.5"></path><path d="M860.76 401.48L860.76 401.48" stroke="rgba(202, 6, 6, 1)" stroke-width="1.5"></path><path d="M860.76 401.48L807.8 514.81" stroke="rgba(202, 6, 6, 1)" stroke-width="1.5"></path><path d="M860.76 401.48L997.56 219.07" stroke="rgba(202, 6, 6, 1)" stroke-width="1.5"></path><path d="M807.8 514.81L807.8 514.81" stroke="rgba(202, 6, 6, 1)" stroke-width="1.5"></path><path d="M807.8 514.81L835.68 660.02" stroke="rgba(202, 6, 6, 1)" stroke-width="1.5"></path><path d="M835.68 660.02L835.68 660.02" stroke="rgba(202, 6, 6, 1)" stroke-width="1.5"></path><path d="M835.68 660.02L948.99 659.49" stroke="rgba(202, 6, 6, 1)" stroke-width="1.5"></path><path d="M835.68 660.02L639.92 537.6" stroke="rgba(202, 6, 6, 1)" stroke-width="1.5"></path><path d="M835.68 660.02L860.76 401.48" stroke="rgba(202, 6, 6, 1)" stroke-width="1.5"></path><path d="M835.68 660.02L520.82 667.93" stroke="rgba(202, 6, 6, 1)" stroke-width="1.5"></path><path d="M994.7 -85.5L994.7 -85.5" stroke="rgba(202, 6, 6, 1)" stroke-width="1.5"></path><path d="M994.7 -85.5L1106.88 -43.27" stroke="rgba(202, 6, 6, 1)" stroke-width="1.5"></path><path d="M994.7 -85.5L974.66 68.81" stroke="rgba(202, 6, 6, 1)" stroke-width="1.5"></path><path d="M994.7 -85.5L1114.5 79.95" stroke="rgba(202, 6, 6, 1)" stroke-width="1.5"></path><path d="M994.7 -85.5L1269.3 -101.95" stroke="rgba(202, 6, 6, 1)" stroke-width="1.5"></path><path d="M974.66 68.81L974.66 68.81" stroke="rgba(202, 6, 6, 1)" stroke-width="1.5"></path><path d="M974.66 68.81L1114.5 79.95" stroke="rgba(202, 6, 6, 1)" stroke-width="1.5"></path><path d="M974.66 68.81L997.56 219.07" stroke="rgba(202, 6, 6, 1)" stroke-width="1.5"></path><path d="M997.56 219.07L997.56 219.07" stroke="rgba(202, 6, 6, 1)" stroke-width="1.5"></path><path d="M997.56 219.07L1127.66 197.3" stroke="rgba(202, 6, 6, 1)" stroke-width="1.5"></path><path d="M997.56 219.07L1114.5 79.95" stroke="rgba(202, 6, 6, 1)" stroke-width="1.5"></path><path d="M997.56 219.07L1117.91 382.97" stroke="rgba(202, 6, 6, 1)" stroke-width="1.5"></path><path d="M948.99 659.49L948.99 659.49" stroke="rgba(202, 6, 6, 1)" stroke-width="1.5"></path><path d="M948.99 659.49L807.8 514.81" stroke="rgba(202, 6, 6, 1)" stroke-width="1.5"></path><path d="M948.99 659.49L1160.41 683.33" stroke="rgba(202, 6, 6, 1)" stroke-width="1.5"></path><path d="M948.99 659.49L1151.7 503.72" stroke="rgba(202, 6, 6, 1)" stroke-width="1.5"></path><path d="M948.99 659.49L860.76 401.48" stroke="rgba(202, 6, 6, 1)" stroke-width="1.5"></path><path d="M948.99 659.49L644.06 645.93" stroke="rgba(202, 6, 6, 1)" stroke-width="1.5"></path><path d="M1106.88 -43.27L1106.88 -43.27" stroke="rgba(202, 6, 6, 1)" stroke-width="1.5"></path><path d="M1106.88 -43.27L1114.5 79.95" stroke="rgba(202, 6, 6, 1)" stroke-width="1.5"></path><path d="M1106.88 -43.27L1269.3 -101.95" stroke="rgba(202, 6, 6, 1)" stroke-width="1.5"></path><path d="M1106.88 -43.27L974.66 68.81" stroke="rgba(202, 6, 6, 1)" stroke-width="1.5"></path><path d="M1106.88 -43.27L1246.24 62.66" stroke="rgba(202, 6, 6, 1)" stroke-width="1.5"></path><path d="M1114.5 79.95L1114.5 79.95" stroke="rgba(202, 6, 6, 1)" stroke-width="1.5"></path><path d="M1114.5 79.95L1127.66 197.3" stroke="rgba(202, 6, 6, 1)" stroke-width="1.5"></path><path d="M1114.5 79.95L1246.24 62.66" stroke="rgba(202, 6, 6, 1)" stroke-width="1.5"></path><path d="M1127.66 197.3L1127.66 197.3" stroke="rgba(202, 6, 6, 1)" stroke-width="1.5"></path><path d="M1127.66 197.3L1281.14 225.66" stroke="rgba(202, 6, 6, 1)" stroke-width="1.5"></path><path d="M1127.66 197.3L1246.24 62.66" stroke="rgba(202, 6, 6, 1)" stroke-width="1.5"></path><path d="M1127.66 197.3L1117.91 382.97" stroke="rgba(202, 6, 6, 1)" stroke-width="1.5"></path><path d="M1127.66 197.3L974.66 68.81" stroke="rgba(202, 6, 6, 1)" stroke-width="1.5"></path><path d="M1117.91 382.97L1117.91 382.97" stroke="rgba(202, 6, 6, 1)" stroke-width="1.5"></path><path d="M1117.91 382.97L1151.7 503.72" stroke="rgba(202, 6, 6, 1)" stroke-width="1.5"></path><path d="M1117.91 382.97L1253.55 390.96" stroke="rgba(202, 6, 6, 1)" stroke-width="1.5"></path><path d="M1117.91 382.97L1247.29 490.62" stroke="rgba(202, 6, 6, 1)" stroke-width="1.5"></path><path d="M1117.91 382.97L1281.14 225.66" stroke="rgba(202, 6, 6, 1)" stroke-width="1.5"></path><path d="M1151.7 503.72L1151.7 503.72" stroke="rgba(202, 6, 6, 1)" stroke-width="1.5"></path><path d="M1151.7 503.72L1247.29 490.62" stroke="rgba(202, 6, 6, 1)" stroke-width="1.5"></path><path d="M1151.7 503.72L1253.55 390.96" stroke="rgba(202, 6, 6, 1)" stroke-width="1.5"></path><path d="M1151.7 503.72L1160.41 683.33" stroke="rgba(202, 6, 6, 1)" stroke-width="1.5"></path><path d="M1160.41 683.33L1160.41 683.33" stroke="rgba(202, 6, 6, 1)" stroke-width="1.5"></path><path d="M1160.41 683.33L1284.87 691.76" stroke="rgba(202, 6, 6, 1)" stroke-width="1.5"></path><path d="M1160.41 683.33L1247.29 490.62" stroke="rgba(202, 6, 6, 1)" stroke-width="1.5"></path><path d="M1160.41 683.33L1391.79 666.99" stroke="rgba(202, 6, 6, 1)" stroke-width="1.5"></path><path d="M1160.41 683.33L1117.91 382.97" stroke="rgba(202, 6, 6, 1)" stroke-width="1.5"></path><path d="M1269.3 -101.95L1269.3 -101.95" stroke="rgba(202, 6, 6, 1)" stroke-width="1.5"></path><path d="M1269.3 -101.95L1409.79 -103.4" stroke="rgba(202, 6, 6, 1)" stroke-width="1.5"></path><path d="M1269.3 -101.95L1246.24 62.66" stroke="rgba(202, 6, 6, 1)" stroke-width="1.5"></path><path d="M1269.3 -101.95L1114.5 79.95" stroke="rgba(202, 6, 6, 1)" stroke-width="1.5"></path><path d="M1246.24 62.66L1246.24 62.66" stroke="rgba(202, 6, 6, 1)" stroke-width="1.5"></path><path d="M1246.24 62.66L1281.14 225.66" stroke="rgba(202, 6, 6, 1)" stroke-width="1.5"></path><path d="M1246.24 62.66L1410.1 207.58" stroke="rgba(202, 6, 6, 1)" stroke-width="1.5"></path><path d="M1281.14 225.66L1281.14 225.66" stroke="rgba(202, 6, 6, 1)" stroke-width="1.5"></path><path d="M1281.14 225.66L1410.1 207.58" stroke="rgba(202, 6, 6, 1)" stroke-width="1.5"></path><path d="M1253.55 390.96L1253.55 390.96" stroke="rgba(202, 6, 6, 1)" stroke-width="1.5"></path><path d="M1253.55 390.96L1247.29 490.62" stroke="rgba(202, 6, 6, 1)" stroke-width="1.5"></path><path d="M1253.55 390.96L1281.14 225.66" stroke="rgba(202, 6, 6, 1)" stroke-width="1.5"></path><path d="M1247.29 490.62L1247.29 490.62" stroke="rgba(202, 6, 6, 1)" stroke-width="1.5"></path><path d="M1284.87 691.76L1284.87 691.76" stroke="rgba(202, 6, 6, 1)" stroke-width="1.5"></path><path d="M1284.87 691.76L1391.79 666.99" stroke="rgba(202, 6, 6, 1)" stroke-width="1.5"></path><path d="M1284.87 691.76L1247.29 490.62" stroke="rgba(202, 6, 6, 1)" stroke-width="1.5"></path><path d="M1284.87 691.76L1151.7 503.72" stroke="rgba(202, 6, 6, 1)" stroke-width="1.5"></path><path d="M1409.79 -103.4L1409.79 -103.4" stroke="rgba(202, 6, 6, 1)" stroke-width="1.5"></path><path d="M1409.79 -103.4L1561.4 -78.3" stroke="rgba(202, 6, 6, 1)" stroke-width="1.5"></path><path d="M1409.79 -103.4L1583.46 47.05" stroke="rgba(202, 6, 6, 1)" stroke-width="1.5"></path><path d="M1410.1 207.58L1410.1 207.58" stroke="rgba(202, 6, 6, 1)" stroke-width="1.5"></path><path d="M1410.1 207.58L1448.06 338.68" stroke="rgba(202, 6, 6, 1)" stroke-width="1.5"></path><path d="M1410.1 207.58L1583.33 352.75" stroke="rgba(202, 6, 6, 1)" stroke-width="1.5"></path><path d="M1410.1 207.58L1583.46 47.05" stroke="rgba(202, 6, 6, 1)" stroke-width="1.5"></path><path d="M1410.1 207.58L1253.55 390.96" stroke="rgba(202, 6, 6, 1)" stroke-width="1.5"></path><path d="M1448.06 338.68L1448.06 338.68" stroke="rgba(202, 6, 6, 1)" stroke-width="1.5"></path><path d="M1448.06 338.68L1583.33 352.75" stroke="rgba(202, 6, 6, 1)" stroke-width="1.5"></path><path d="M1459.18 531.37L1459.18 531.37" stroke="rgba(202, 6, 6, 1)" stroke-width="1.5"></path><path d="M1459.18 531.37L1546.14 490.53" stroke="rgba(202, 6, 6, 1)" stroke-width="1.5"></path><path d="M1459.18 531.37L1391.79 666.99" stroke="rgba(202, 6, 6, 1)" stroke-width="1.5"></path><path d="M1459.18 531.37L1448.06 338.68" stroke="rgba(202, 6, 6, 1)" stroke-width="1.5"></path><path d="M1459.18 531.37L1247.29 490.62" stroke="rgba(202, 6, 6, 1)" stroke-width="1.5"></path><path d="M1459.18 531.37L1583.33 352.75" stroke="rgba(202, 6, 6, 1)" stroke-width="1.5"></path><path d="M1459.18 531.37L1608.77 693.41" stroke="rgba(202, 6, 6, 1)" stroke-width="1.5"></path><path d="M1391.79 666.99L1391.79 666.99" stroke="rgba(202, 6, 6, 1)" stroke-width="1.5"></path><path d="M1391.79 666.99L1608.77 693.41" stroke="rgba(202, 6, 6, 1)" stroke-width="1.5"></path><path d="M1561.4 -78.3L1561.4 -78.3" stroke="rgba(202, 6, 6, 1)" stroke-width="1.5"></path><path d="M1561.4 -78.3L1583.46 47.05" stroke="rgba(202, 6, 6, 1)" stroke-width="1.5"></path><path d="M1561.4 -78.3L1269.3 -101.95" stroke="rgba(202, 6, 6, 1)" stroke-width="1.5"></path><path d="M1561.4 -78.3L1410.1 207.58" stroke="rgba(202, 6, 6, 1)" stroke-width="1.5"></path><path d="M1561.4 -78.3L1246.24 62.66" stroke="rgba(202, 6, 6, 1)" stroke-width="1.5"></path><path d="M1583.46 47.05L1583.46 47.05" stroke="rgba(202, 6, 6, 1)" stroke-width="1.5"></path><path d="M1583.33 352.75L1583.33 352.75" stroke="rgba(202, 6, 6, 1)" stroke-width="1.5"></path><path d="M1583.33 352.75L1546.14 490.53" stroke="rgba(202, 6, 6, 1)" stroke-width="1.5"></path><path d="M1583.33 352.75L1583.46 47.05" stroke="rgba(202, 6, 6, 1)" stroke-width="1.5"></path><path d="M1546.14 490.53L1546.14 490.53" stroke="rgba(202, 6, 6, 1)" stroke-width="1.5"></path><path d="M1608.77 693.41L1608.77 693.41" stroke="rgba(202, 6, 6, 1)" stroke-width="1.5"></path><path d="M1608.77 693.41L1546.14 490.53" stroke="rgba(202, 6, 6, 1)" stroke-width="1.5"></path><path d="M1608.77 693.41L1284.87 691.76" stroke="rgba(202, 6, 6, 1)" stroke-width="1.5"></path><path d="M1608.77 693.41L1583.33 352.75" stroke="rgba(202, 6, 6, 1)" stroke-width="1.5"></path><circle r="5" cx="-85.93" cy="520.61" fill="rgba(202, 6, 6, 1)"></circle><circle r="5" cx="-64.54" cy="710.68" fill="rgba(202, 6, 6, 1)"></circle><circle r="5" cx="111.93" cy="341" fill="rgba(202, 6, 6, 1)"></circle><circle r="5" cx="99.76" cy="548.16" fill="rgba(202, 6, 6, 1)"></circle><circle r="5" cx="73.87" cy="706.49" fill="rgba(202, 6, 6, 1)"></circle><circle r="5" cx="220.09" cy="358.41" fill="rgba(202, 6, 6, 1)"></circle><circle r="5" cx="239.59" cy="487.5" fill="rgba(202, 6, 6, 1)"></circle><circle r="5" cx="230.13" cy="655.21" fill="rgba(202, 6, 6, 1)"></circle><circle r="5" cx="374.99" cy="339.14" fill="rgba(202, 6, 6, 1)"></circle><circle r="5" cx="353.36" cy="553.06" fill="rgba(202, 6, 6, 1)"></circle><circle r="5" cx="345.43" cy="682.32" fill="rgba(202, 6, 6, 1)"></circle><circle r="5" cx="549.87" cy="395.64" fill="rgba(202, 6, 6, 1)"></circle><circle r="5" cx="546.82" cy="499.21" fill="rgba(202, 6, 6, 1)"></circle><circle r="5" cx="520.82" cy="667.93" fill="rgba(202, 6, 6, 1)"></circle><circle r="5" cx="659.48" cy="250.07" fill="rgba(202, 6, 6, 1)"></circle><circle r="5" cx="696.59" cy="339.5" fill="rgba(202, 6, 6, 1)"></circle><circle r="5" cx="639.92" cy="537.6" fill="rgba(202, 6, 6, 1)"></circle><circle r="5" cx="644.06" cy="645.93" fill="rgba(202, 6, 6, 1)"></circle><circle r="5" cx="790.68" cy="243.65" fill="rgba(202, 6, 6, 1)"></circle><circle r="5" cx="860.76" cy="401.48" fill="rgba(202, 6, 6, 1)"></circle><circle r="5" cx="807.8" cy="514.81" fill="rgba(202, 6, 6, 1)"></circle><circle r="5" cx="835.68" cy="660.02" fill="rgba(202, 6, 6, 1)"></circle><circle r="5" cx="994.7" cy="-85.5" fill="rgba(202, 6, 6, 1)"></circle><circle r="5" cx="974.66" cy="68.81" fill="rgba(202, 6, 6, 1)"></circle><circle r="5" cx="997.56" cy="219.07" fill="rgba(202, 6, 6, 1)"></circle><circle r="5" cx="948.99" cy="659.49" fill="rgba(202, 6, 6, 1)"></circle><circle r="5" cx="1106.88" cy="-43.27" fill="rgba(202, 6, 6, 1)"></circle><circle r="5" cx="1114.5" cy="79.95" fill="rgba(202, 6, 6, 1)"></circle><circle r="5" cx="1127.66" cy="197.3" fill="rgba(202, 6, 6, 1)"></circle><circle r="5" cx="1117.91" cy="382.97" fill="rgba(202, 6, 6, 1)"></circle><circle r="5" cx="1151.7" cy="503.72" fill="rgba(202, 6, 6, 1)"></circle><circle r="5" cx="1160.41" cy="683.33" fill="rgba(202, 6, 6, 1)"></circle><circle r="5" cx="1269.3" cy="-101.95" fill="rgba(202, 6, 6, 1)"></circle><circle r="5" cx="1246.24" cy="62.66" fill="rgba(202, 6, 6, 1)"></circle><circle r="5" cx="1281.14" cy="225.66" fill="rgba(202, 6, 6, 1)"></circle><circle r="5" cx="1253.55" cy="390.96" fill="rgba(202, 6, 6, 1)"></circle><circle r="5" cx="1247.29" cy="490.62" fill="rgba(202, 6, 6, 1)"></circle><circle r="5" cx="1284.87" cy="691.76" fill="rgba(202, 6, 6, 1)"></circle><circle r="5" cx="1409.79" cy="-103.4" fill="rgba(202, 6, 6, 1)"></circle><circle r="5" cx="1410.1" cy="207.58" fill="rgba(202, 6, 6, 1)"></circle><circle r="5" cx="1448.06" cy="338.68" fill="rgba(202, 6, 6, 1)"></circle><circle r="5" cx="1459.18" cy="531.37" fill="rgba(202, 6, 6, 1)"></circle><circle r="5" cx="1391.79" cy="666.99" fill="rgba(202, 6, 6, 1)"></circle><circle r="5" cx="1561.4" cy="-78.3" fill="rgba(202, 6, 6, 1)"></circle><circle r="5" cx="1583.46" cy="47.05" fill="rgba(202, 6, 6, 1)"></circle><circle r="5" cx="1583.33" cy="352.75" fill="rgba(202, 6, 6, 1)"></circle><circle r="5" cx="1546.14" cy="490.53" fill="rgba(202, 6, 6, 1)"></circle><circle r="5" cx="1608.77" cy="693.41" fill="rgba(202, 6, 6, 1)"></circle><path d="M501.21 712.42L501.21 712.42" stroke="hsl(341.4, 76.4%, 28%)" stroke-width="1.5"></path><path d="M501.21 712.42L652.51 688.88" stroke="hsl(341.4, 76.4%, 28%)" stroke-width="1.5"></path><path d="M501.21 712.42L346.07 685.18" stroke="hsl(341.4, 76.4%, 28%)" stroke-width="1.5"></path><path d="M501.21 712.42L498.96 489.69" stroke="hsl(341.4, 76.4%, 28%)" stroke-width="1.5"></path><path d="M501.21 712.42L644.9 542.17" stroke="hsl(341.4, 76.4%, 28%)" stroke-width="1.5"></path><path d="M795.01 702.93L795.01 702.93" stroke="hsl(341.4, 76.4%, 28%)" stroke-width="1.5"></path><path d="M795.01 702.93L652.51 688.88" stroke="hsl(341.4, 76.4%, 28%)" stroke-width="1.5"></path><path d="M795.01 702.93L795.53 545.25" stroke="hsl(341.4, 76.4%, 28%)" stroke-width="1.5"></path><path d="M795.01 702.93L970.73 647.11" stroke="hsl(341.4, 76.4%, 28%)" stroke-width="1.5"></path><path d="M950.37 509.22L950.37 509.22" stroke="hsl(341.4, 76.4%, 28%)" stroke-width="1.5"></path><path d="M950.37 509.22L988.99 407.78" stroke="hsl(341.4, 76.4%, 28%)" stroke-width="1.5"></path><path d="M950.37 509.22L970.73 647.11" stroke="hsl(341.4, 76.4%, 28%)" stroke-width="1.5"></path><path d="M950.37 509.22L795.53 545.25" stroke="hsl(341.4, 76.4%, 28%)" stroke-width="1.5"></path><path d="M950.37 509.22L1104.4 399.88" stroke="hsl(341.4, 76.4%, 28%)" stroke-width="1.5"></path><path d="M950.37 509.22L828.06 350.74" stroke="hsl(341.4, 76.4%, 28%)" stroke-width="1.5"></path><path d="M1249.45 -84.21L1249.45 -84.21" stroke="hsl(341.4, 76.4%, 28%)" stroke-width="1.5"></path><path d="M1249.45 -84.21L1278.6 79.82" stroke="hsl(341.4, 76.4%, 28%)" stroke-width="1.5"></path><path d="M1249.45 -84.21L1449.02 -64.65" stroke="hsl(341.4, 76.4%, 28%)" stroke-width="1.5"></path><path d="M1249.45 -84.21L1461.34 85.09" stroke="hsl(341.4, 76.4%, 28%)" stroke-width="1.5"></path><path d="M1249.45 -84.21L1120.71 208.82" stroke="hsl(341.4, 76.4%, 28%)" stroke-width="1.5"></path><path d="M1249.45 -84.21L1423.46 190.44" stroke="hsl(341.4, 76.4%, 28%)" stroke-width="1.5"></path><path d="M1249.45 -84.21L1275.16 243.5" stroke="hsl(341.4, 76.4%, 28%)" stroke-width="1.5"></path><path d="M1275.16 243.5L1275.16 243.5" stroke="hsl(341.4, 76.4%, 28%)" stroke-width="1.5"></path><path d="M1275.16 243.5L1423.46 190.44" stroke="hsl(341.4, 76.4%, 28%)" stroke-width="1.5"></path><path d="M1275.16 243.5L1120.71 208.82" stroke="hsl(341.4, 76.4%, 28%)" stroke-width="1.5"></path><path d="M1275.16 243.5L1255.05 404.35" stroke="hsl(341.4, 76.4%, 28%)" stroke-width="1.5"></path><path d="M1275.16 243.5L1278.6 79.82" stroke="hsl(341.4, 76.4%, 28%)" stroke-width="1.5"></path><path d="M1423.46 190.44L1423.46 190.44" stroke="hsl(341.4, 76.4%, 28%)" stroke-width="1.5"></path><path d="M1423.46 190.44L1461.34 85.09" stroke="hsl(341.4, 76.4%, 28%)" stroke-width="1.5"></path><path d="M1423.46 190.44L1443.74 361.86" stroke="hsl(341.4, 76.4%, 28%)" stroke-width="1.5"></path><path d="M1447.53 518.21L1447.53 518.21" stroke="hsl(341.4, 76.4%, 28%)" stroke-width="1.5"></path><path d="M1447.53 518.21L1547.58 514.23" stroke="hsl(341.4, 76.4%, 28%)" stroke-width="1.5"></path><path d="M1447.53 518.21L1443.74 361.86" stroke="hsl(341.4, 76.4%, 28%)" stroke-width="1.5"></path><path d="M1447.53 518.21L1428.78 674.35" stroke="hsl(341.4, 76.4%, 28%)" stroke-width="1.5"></path><path d="M1447.53 518.21L1280.03 648.33" stroke="hsl(341.4, 76.4%, 28%)" stroke-width="1.5"></path><path d="M1447.53 518.21L1583.6 350.72" stroke="hsl(341.4, 76.4%, 28%)" stroke-width="1.5"></path><path d="M1596.41 75.8L1596.41 75.8" stroke="hsl(341.4, 76.4%, 28%)" stroke-width="1.5"></path><path d="M1596.41 75.8L1461.34 85.09" stroke="hsl(341.4, 76.4%, 28%)" stroke-width="1.5"></path><path d="M1596.41 75.8L1608.61 212.78" stroke="hsl(341.4, 76.4%, 28%)" stroke-width="1.5"></path><path d="M-106.97 505.44L-106.97 505.44" stroke="hsl(341.4, 76.4%, 28%)" stroke-width="1.5"></path><path d="M-106.97 505.44L53.67 528.86" stroke="hsl(341.4, 76.4%, 28%)" stroke-width="1.5"></path><path d="M-106.97 505.44L-109.46 683.75" stroke="hsl(341.4, 76.4%, 28%)" stroke-width="1.5"></path><path d="M-106.97 505.44L58.37 649.73" stroke="hsl(341.4, 76.4%, 28%)" stroke-width="1.5"></path><path d="M-109.46 683.75L-109.46 683.75" stroke="hsl(341.4, 76.4%, 28%)" stroke-width="1.5"></path><path d="M-109.46 683.75L58.37 649.73" stroke="hsl(341.4, 76.4%, 28%)" stroke-width="1.5"></path><path d="M-109.46 683.75L53.67 528.86" stroke="hsl(341.4, 76.4%, 28%)" stroke-width="1.5"></path><path d="M-109.46 683.75L227.96 706.35" stroke="hsl(341.4, 76.4%, 28%)" stroke-width="1.5"></path><path d="M-109.46 683.75L249.04 537.95" stroke="hsl(341.4, 76.4%, 28%)" stroke-width="1.5"></path><path d="M-109.46 683.75L346.07 685.18" stroke="hsl(341.4, 76.4%, 28%)" stroke-width="1.5"></path><path d="M53.67 528.86L53.67 528.86" stroke="hsl(341.4, 76.4%, 28%)" stroke-width="1.5"></path><path d="M53.67 528.86L58.37 649.73" stroke="hsl(341.4, 76.4%, 28%)" stroke-width="1.5"></path><path d="M58.37 649.73L58.37 649.73" stroke="hsl(341.4, 76.4%, 28%)" stroke-width="1.5"></path><path d="M58.37 649.73L227.96 706.35" stroke="hsl(341.4, 76.4%, 28%)" stroke-width="1.5"></path><path d="M58.37 649.73L249.04 537.95" stroke="hsl(341.4, 76.4%, 28%)" stroke-width="1.5"></path><path d="M249.04 537.95L249.04 537.95" stroke="hsl(341.4, 76.4%, 28%)" stroke-width="1.5"></path><path d="M249.04 537.95L397.11 494.6" stroke="hsl(341.4, 76.4%, 28%)" stroke-width="1.5"></path><path d="M249.04 537.95L227.96 706.35" stroke="hsl(341.4, 76.4%, 28%)" stroke-width="1.5"></path><path d="M249.04 537.95L346.07 685.18" stroke="hsl(341.4, 76.4%, 28%)" stroke-width="1.5"></path><path d="M249.04 537.95L53.67 528.86" stroke="hsl(341.4, 76.4%, 28%)" stroke-width="1.5"></path><path d="M249.04 537.95L498.96 489.69" stroke="hsl(341.4, 76.4%, 28%)" stroke-width="1.5"></path><path d="M227.96 706.35L227.96 706.35" stroke="hsl(341.4, 76.4%, 28%)" stroke-width="1.5"></path><path d="M227.96 706.35L346.07 685.18" stroke="hsl(341.4, 76.4%, 28%)" stroke-width="1.5"></path><path d="M227.96 706.35L53.67 528.86" stroke="hsl(341.4, 76.4%, 28%)" stroke-width="1.5"></path><path d="M227.96 706.35L397.11 494.6" stroke="hsl(341.4, 76.4%, 28%)" stroke-width="1.5"></path><path d="M227.96 706.35L501.21 712.42" stroke="hsl(341.4, 76.4%, 28%)" stroke-width="1.5"></path><path d="M397.11 494.6L397.11 494.6" stroke="hsl(341.4, 76.4%, 28%)" stroke-width="1.5"></path><path d="M397.11 494.6L498.96 489.69" stroke="hsl(341.4, 76.4%, 28%)" stroke-width="1.5"></path><path d="M397.11 494.6L346.07 685.18" stroke="hsl(341.4, 76.4%, 28%)" stroke-width="1.5"></path><path d="M397.11 494.6L501.21 712.42" stroke="hsl(341.4, 76.4%, 28%)" stroke-width="1.5"></path><path d="M397.11 494.6L644.9 542.17" stroke="hsl(341.4, 76.4%, 28%)" stroke-width="1.5"></path><path d="M346.07 685.18L346.07 685.18" stroke="hsl(341.4, 76.4%, 28%)" stroke-width="1.5"></path><path d="M498.96 489.69L498.96 489.69" stroke="hsl(341.4, 76.4%, 28%)" stroke-width="1.5"></path><path d="M498.96 489.69L644.9 542.17" stroke="hsl(341.4, 76.4%, 28%)" stroke-width="1.5"></path><path d="M644.9 542.17L644.9 542.17" stroke="hsl(341.4, 76.4%, 28%)" stroke-width="1.5"></path><path d="M644.9 542.17L652.51 688.88" stroke="hsl(341.4, 76.4%, 28%)" stroke-width="1.5"></path><path d="M652.51 688.88L652.51 688.88" stroke="hsl(341.4, 76.4%, 28%)" stroke-width="1.5"></path><path d="M828.06 350.74L828.06 350.74" stroke="hsl(341.4, 76.4%, 28%)" stroke-width="1.5"></path><path d="M828.06 350.74L988.99 407.78" stroke="hsl(341.4, 76.4%, 28%)" stroke-width="1.5"></path><path d="M828.06 350.74L795.53 545.25" stroke="hsl(341.4, 76.4%, 28%)" stroke-width="1.5"></path><path d="M828.06 350.74L644.9 542.17" stroke="hsl(341.4, 76.4%, 28%)" stroke-width="1.5"></path><path d="M828.06 350.74L1104.4 399.88" stroke="hsl(341.4, 76.4%, 28%)" stroke-width="1.5"></path><path d="M828.06 350.74L1120.71 208.82" stroke="hsl(341.4, 76.4%, 28%)" stroke-width="1.5"></path><path d="M795.53 545.25L795.53 545.25" stroke="hsl(341.4, 76.4%, 28%)" stroke-width="1.5"></path><path d="M795.53 545.25L644.9 542.17" stroke="hsl(341.4, 76.4%, 28%)" stroke-width="1.5"></path><path d="M795.53 545.25L970.73 647.11" stroke="hsl(341.4, 76.4%, 28%)" stroke-width="1.5"></path><path d="M988.99 407.78L988.99 407.78" stroke="hsl(341.4, 76.4%, 28%)" stroke-width="1.5"></path><path d="M988.99 407.78L1104.4 399.88" stroke="hsl(341.4, 76.4%, 28%)" stroke-width="1.5"></path><path d="M970.73 647.11L970.73 647.11" stroke="hsl(341.4, 76.4%, 28%)" stroke-width="1.5"></path><path d="M970.73 647.11L988.99 407.78" stroke="hsl(341.4, 76.4%, 28%)" stroke-width="1.5"></path><path d="M970.73 647.11L1104.4 399.88" stroke="hsl(341.4, 76.4%, 28%)" stroke-width="1.5"></path><path d="M970.73 647.11L1280.03 648.33" stroke="hsl(341.4, 76.4%, 28%)" stroke-width="1.5"></path><path d="M1120.71 208.82L1120.71 208.82" stroke="hsl(341.4, 76.4%, 28%)" stroke-width="1.5"></path><path d="M1120.71 208.82L1104.4 399.88" stroke="hsl(341.4, 76.4%, 28%)" stroke-width="1.5"></path><path d="M1120.71 208.82L1278.6 79.82" stroke="hsl(341.4, 76.4%, 28%)" stroke-width="1.5"></path><path d="M1120.71 208.82L1255.05 404.35" stroke="hsl(341.4, 76.4%, 28%)" stroke-width="1.5"></path><path d="M1120.71 208.82L988.99 407.78" stroke="hsl(341.4, 76.4%, 28%)" stroke-width="1.5"></path><path d="M1104.4 399.88L1104.4 399.88" stroke="hsl(341.4, 76.4%, 28%)" stroke-width="1.5"></path><path d="M1104.4 399.88L1255.05 404.35" stroke="hsl(341.4, 76.4%, 28%)" stroke-width="1.5"></path><path d="M1278.6 79.82L1278.6 79.82" stroke="hsl(341.4, 76.4%, 28%)" stroke-width="1.5"></path><path d="M1278.6 79.82L1423.46 190.44" stroke="hsl(341.4, 76.4%, 28%)" stroke-width="1.5"></path><path d="M1278.6 79.82L1461.34 85.09" stroke="hsl(341.4, 76.4%, 28%)" stroke-width="1.5"></path><path d="M1278.6 79.82L1449.02 -64.65" stroke="hsl(341.4, 76.4%, 28%)" stroke-width="1.5"></path><path d="M1255.05 404.35L1255.05 404.35" stroke="hsl(341.4, 76.4%, 28%)" stroke-width="1.5"></path><path d="M1255.05 404.35L1443.74 361.86" stroke="hsl(341.4, 76.4%, 28%)" stroke-width="1.5"></path><path d="M1255.05 404.35L1447.53 518.21" stroke="hsl(341.4, 76.4%, 28%)" stroke-width="1.5"></path><path d="M1280.03 648.33L1280.03 648.33" stroke="hsl(341.4, 76.4%, 28%)" stroke-width="1.5"></path><path d="M1280.03 648.33L1428.78 674.35" stroke="hsl(341.4, 76.4%, 28%)" stroke-width="1.5"></path><path d="M1280.03 648.33L1255.05 404.35" stroke="hsl(341.4, 76.4%, 28%)" stroke-width="1.5"></path><path d="M1449.02 -64.65L1449.02 -64.65" stroke="hsl(341.4, 76.4%, 28%)" stroke-width="1.5"></path><path d="M1449.02 -64.65L1584.22 -105.81" stroke="hsl(341.4, 76.4%, 28%)" stroke-width="1.5"></path><path d="M1449.02 -64.65L1461.34 85.09" stroke="hsl(341.4, 76.4%, 28%)" stroke-width="1.5"></path><path d="M1461.34 85.09L1461.34 85.09" stroke="hsl(341.4, 76.4%, 28%)" stroke-width="1.5"></path><path d="M1443.74 361.86L1443.74 361.86" stroke="hsl(341.4, 76.4%, 28%)" stroke-width="1.5"></path><path d="M1443.74 361.86L1583.6 350.72" stroke="hsl(341.4, 76.4%, 28%)" stroke-width="1.5"></path><path d="M1443.74 361.86L1547.58 514.23" stroke="hsl(341.4, 76.4%, 28%)" stroke-width="1.5"></path><path d="M1428.78 674.35L1428.78 674.35" stroke="hsl(341.4, 76.4%, 28%)" stroke-width="1.5"></path><path d="M1428.78 674.35L1612.23 687.85" stroke="hsl(341.4, 76.4%, 28%)" stroke-width="1.5"></path><path d="M1428.78 674.35L1547.58 514.23" stroke="hsl(341.4, 76.4%, 28%)" stroke-width="1.5"></path><path d="M1428.78 674.35L1443.74 361.86" stroke="hsl(341.4, 76.4%, 28%)" stroke-width="1.5"></path><path d="M1584.22 -105.81L1584.22 -105.81" stroke="hsl(341.4, 76.4%, 28%)" stroke-width="1.5"></path><path d="M1584.22 -105.81L1596.41 75.8" stroke="hsl(341.4, 76.4%, 28%)" stroke-width="1.5"></path><path d="M1584.22 -105.81L1461.34 85.09" stroke="hsl(341.4, 76.4%, 28%)" stroke-width="1.5"></path><path d="M1584.22 -105.81L1608.61 212.78" stroke="hsl(341.4, 76.4%, 28%)" stroke-width="1.5"></path><path d="M1584.22 -105.81L1249.45 -84.21" stroke="hsl(341.4, 76.4%, 28%)" stroke-width="1.5"></path><path d="M1608.61 212.78L1608.61 212.78" stroke="hsl(341.4, 76.4%, 28%)" stroke-width="1.5"></path><path d="M1608.61 212.78L1583.6 350.72" stroke="hsl(341.4, 76.4%, 28%)" stroke-width="1.5"></path><path d="M1608.61 212.78L1423.46 190.44" stroke="hsl(341.4, 76.4%, 28%)" stroke-width="1.5"></path><path d="M1608.61 212.78L1461.34 85.09" stroke="hsl(341.4, 76.4%, 28%)" stroke-width="1.5"></path><path d="M1583.6 350.72L1583.6 350.72" stroke="hsl(341.4, 76.4%, 28%)" stroke-width="1.5"></path><path d="M1583.6 350.72L1547.58 514.23" stroke="hsl(341.4, 76.4%, 28%)" stroke-width="1.5"></path><path d="M1583.6 350.72L1423.46 190.44" stroke="hsl(341.4, 76.4%, 28%)" stroke-width="1.5"></path><path d="M1583.6 350.72L1596.41 75.8" stroke="hsl(341.4, 76.4%, 28%)" stroke-width="1.5"></path><path d="M1547.58 514.23L1547.58 514.23" stroke="hsl(341.4, 76.4%, 28%)" stroke-width="1.5"></path><path d="M1547.58 514.23L1612.23 687.85" stroke="hsl(341.4, 76.4%, 28%)" stroke-width="1.5"></path><path d="M1612.23 687.85L1612.23 687.85" stroke="hsl(341.4, 76.4%, 28%)" stroke-width="1.5"></path><path d="M1612.23 687.85L1447.53 518.21" stroke="hsl(341.4, 76.4%, 28%)" stroke-width="1.5"></path><path d="M1612.23 687.85L1280.03 648.33" stroke="hsl(341.4, 76.4%, 28%)" stroke-width="1.5"></path><circle r="25" cx="501.21" cy="712.42" fill="url(&quot;#SvgjsRadialGradient1531&quot;)"></circle><circle r="25" cx="795.01" cy="702.93" fill="url(&quot;#SvgjsRadialGradient1531&quot;)"></circle><circle r="25" cx="950.37" cy="509.22" fill="url(&quot;#SvgjsRadialGradient1531&quot;)"></circle><circle r="25" cx="1249.45" cy="-84.21" fill="url(&quot;#SvgjsRadialGradient1531&quot;)"></circle><circle r="25" cx="1275.16" cy="243.5" fill="url(&quot;#SvgjsRadialGradient1531&quot;)"></circle><circle r="25" cx="1423.46" cy="190.44" fill="url(&quot;#SvgjsRadialGradient1531&quot;)"></circle><circle r="25" cx="1447.53" cy="518.21" fill="url(&quot;#SvgjsRadialGradient1531&quot;)"></circle><circle r="25" cx="1596.41" cy="75.8" fill="url(&quot;#SvgjsRadialGradient1531&quot;)"></circle><circle r="5" cx="-106.97" cy="505.44" fill="#b08693"></circle><circle r="5" cx="-109.46" cy="683.75" fill="#b08693"></circle><circle r="5" cx="53.67" cy="528.86" fill="#b08693"></circle><circle r="5" cx="58.37" cy="649.73" fill="#b08693"></circle><circle r="5" cx="249.04" cy="537.95" fill="#b08693"></circle><circle r="5" cx="227.96" cy="706.35" fill="#b08693"></circle><circle r="5" cx="397.11" cy="494.6" fill="#b08693"></circle><circle r="5" cx="346.07" cy="685.18" fill="#b08693"></circle><circle r="5" cx="498.96" cy="489.69" fill="#b08693"></circle><circle r="5" cx="644.9" cy="542.17" fill="#b08693"></circle><circle r="5" cx="652.51" cy="688.88" fill="#b08693"></circle><circle r="5" cx="828.06" cy="350.74" fill="#b08693"></circle><circle r="5" cx="795.53" cy="545.25" fill="#b08693"></circle><circle r="5" cx="988.99" cy="407.78" fill="#b08693"></circle><circle r="5" cx="970.73" cy="647.11" fill="#b08693"></circle><circle r="5" cx="1120.71" cy="208.82" fill="#b08693"></circle><circle r="5" cx="1104.4" cy="399.88" fill="#b08693"></circle><circle r="5" cx="1278.6" cy="79.82" fill="#b08693"></circle><circle r="5" cx="1255.05" cy="404.35" fill="#b08693"></circle><circle r="5" cx="1280.03" cy="648.33" fill="#b08693"></circle><circle r="5" cx="1449.02" cy="-64.65" fill="#b08693"></circle><circle r="5" cx="1461.34" cy="85.09" fill="#b08693"></circle><circle r="5" cx="1443.74" cy="361.86" fill="#b08693"></circle><circle r="5" cx="1428.78" cy="674.35" fill="#b08693"></circle><circle r="5" cx="1584.22" cy="-105.81" fill="#b08693"></circle><circle r="5" cx="1608.61" cy="212.78" fill="#b08693"></circle><circle r="5" cx="1583.6" cy="350.72" fill="#b08693"></circle><circle r="5" cx="1547.58" cy="514.23" fill="#b08693"></circle><circle r="5" cx="1612.23" cy="687.85" fill="#b08693"></circle></g><defs><mask id="SvgjsMask1529"><rect width="1440" height="560" fill="#ffffff"></rect></mask><linearGradient x1="15.28%" y1="139.29%" x2="84.72%" y2="-39.29%" gradientUnits="userSpaceOnUse" id="SvgjsLinearGradient1530"><stop stop-color="#0e2a47" offset="0"></stop><stop stop-color="rgba(173, 57, 23, 1)" offset="1"></stop></linearGradient><radialGradient id="SvgjsRadialGradient1531"><stop stop-color="#ffffff" offset="0.1"></stop><stop stop-color="rgba(97, 13, 39, 1)" offset="0.2"></stop><stop stop-color="rgba(97, 13, 39, 0)" offset="1"></stop></radialGradient></defs></svg>